<svg version="1.0" xmlns="http://www.w3.org/2000/svg" width="512.000000pt" height="512.000000pt" viewBox="0 0 512.000000 512.000000" preserveAspectRatio="xMidYMid meet">
  <g transform="translate(0.000000,512.000000) scale(0.100000,-0.100000)" fill="#000000" stroke="none">
    <path d="M1465 4694 c-33 -8 -94 -31 -135 -52 -94 -46 -211 -158 -263 -253
-40 -72 -77 -198 -77 -264 0 -40 -2 -43 -42 -61 -212 -95 -383 -303 -444 -539
-23 -91 -24 -274 -1 -365 15 -60 15 -66 0 -75 -144 -90 -222 -160 -287 -259
-191 -288 -160 -679 73 -928 39 -42 97 -93 130 -114 l59 -38 7 -70 c22 -222
150 -413 345 -511 37 -19 89 -39 114 -46 l46 -11 0 -69 c0 -93 16 -160 59
-254 97 -209 308 -351 528 -358 68 -2 76 0 94 22 25 31 24 67 -4 95 -18 18
-38 24 -92 29 -277 23 -482 284 -435 552 11 62 52 175 63 175 3 0 24 -7 47
-15 23 -8 62 -15 86 -15 34 0 47 5 63 26 41 53 16 107 -56 119 -61 11 -71 15
-103 42 -38 32 -60 73 -60 113 0 38 -39 80 -75 80 -15 0 -37 -11 -52 -26 -23
-23 -25 -30 -19 -77 4 -29 17 -74 30 -100 l23 -48 -33 -67 c-19 -37 -35 -71
-37 -75 -4 -13 -115 30 -172 68 -66 44 -128 113 -161 178 -25 49 -59 165 -51
174 3 2 22 0 43 -6 22 -5 73 -13 114 -17 66 -5 78 -4 99 14 18 14 25 29 25 56
0 53 -20 67 -111 76 -169 17 -271 66 -388 184 -124 125 -176 248 -176 421 -1
156 51 294 152 408 47 53 159 137 183 137 6 0 21 -18 34 -40 12 -22 50 -69 83
-105 66 -70 98 -81 137 -47 43 36 38 62 -28 142 -116 143 -158 244 -167 405
-7 118 15 223 69 332 41 84 155 206 239 255 l63 38 22 -61 c12 -33 36 -84 54
-112 l32 -51 -21 -63 c-24 -72 -26 -105 -10 -136 16 -30 28 -37 66 -37 38 0
73 39 73 82 0 69 61 133 140 148 65 12 93 37 93 81 0 51 -34 73 -104 66 -31
-3 -70 -12 -88 -22 -41 -21 -50 -14 -85 64 -105 234 -3 511 228 625 237 117
524 19 642 -219 46 -93 53 -162 54 -487 l0 -268 -43 0 c-94 0 -224 -61 -274
-128 -57 -77 -68 -112 -68 -219 0 -92 2 -105 22 -124 26 -27 77 -29 101 -5 13
13 17 35 17 99 0 99 21 147 83 191 32 23 56 31 102 34 l60 4 0 -574 0 -575 23
-21 c29 -28 67 -28 95 -2 22 21 22 24 22 345 0 179 2 325 4 325 2 0 30 -12 62
-27 51 -24 71 -28 149 -27 137 1 228 52 211 118 -14 55 -60 70 -129 41 -20 -8
-60 -15 -89 -15 -69 0 -123 31 -164 91 -30 46 -31 49 -37 205 -10 227 -8 742
2 851 12 124 51 205 140 294 271 271 719 139 807 -237 24 -106 10 -212 -44
-322 -18 -38 -30 -52 -41 -48 -9 2 -34 12 -56 20 -94 36 -165 11 -165 -57 0
-44 24 -64 88 -77 89 -17 125 -53 142 -142 6 -28 18 -60 27 -70 23 -25 78 -23
104 3 19 19 21 29 15 81 -3 32 -13 72 -22 89 -15 30 -15 33 35 130 28 55 51
109 51 121 0 25 12 21 85 -28 121 -80 219 -207 266 -344 30 -89 37 -249 15
-345 -24 -99 -75 -199 -147 -284 -70 -84 -79 -120 -40 -153 43 -34 73 -24 140
47 33 36 71 83 83 105 13 22 28 40 34 40 7 0 39 -18 73 -41 134 -89 230 -240
258 -407 18 -106 12 -168 -15 -157 -9 4 -45 12 -79 18 -116 20 -250 -22 -344
-110 -55 -52 -109 -135 -109 -169 0 -32 38 -74 66 -74 40 0 60 16 93 74 72
128 221 171 361 105 105 -50 146 -31 169 79 35 168 -4 377 -100 539 -47 78
-171 200 -252 247 -48 28 -66 44 -63 55 25 87 30 122 29 231 0 153 -21 239
-90 373 -64 125 -198 261 -323 327 l-85 45 -7 71 c-15 145 -82 278 -194 383
-121 113 -264 171 -423 171 -210 -1 -417 -107 -522 -271 -18 -27 -35 -49 -39
-49 -4 0 -21 22 -39 49 -74 116 -229 222 -371 255 -80 19 -215 19 -295 0z" />
    <path d="M1360 2551 c-82 -29 -111 -77 -75 -128 20 -29 58 -36 101 -18 20 8
61 15 91 15 91 0 163 -50 202 -142 29 -68 76 -87 122 -49 69 56 -29 234 -166
302 -84 41 -193 49 -275 20z" />
    <path d="M2033 1990 c-108 -16 -204 -88 -252 -190 l-26 -55 0 -545 0 -545 34
-63 c40 -74 84 -115 161 -151 l55 -26 295 0 295 0 67 33 c73 36 123 86 159
161 19 38 24 68 27 164 l4 117 533 0 532 0 6 -107 c6 -142 25 -190 103 -270
51 -52 70 -64 128 -82 62 -19 92 -21 321 -21 229 0 259 2 321 21 57 18 77 31
129 82 103 104 100 80 100 697 l0 525 -26 56 c-53 112 -140 179 -259 198 -84
14 -446 14 -530 0 -118 -19 -207 -87 -257 -196 -21 -45 -27 -76 -31 -164 l-5
-109 -532 0 -533 0 -4 118 c-3 104 -7 123 -31 170 -54 103 -143 166 -259 183
-74 10 -450 10 -525 -1z m588 -175 c23 -16 52 -48 63 -70 20 -39 21 -52 21
-535 0 -272 -3 -507 -7 -522 -11 -38 -54 -86 -99 -108 -35 -18 -60 -20 -299
-20 -241 0 -264 2 -300 20 -51 26 -87 75 -100 136 -7 33 -10 211 -8 520 3 463
3 470 25 511 22 41 59 74 104 93 14 5 137 8 291 7 l266 -2 43 -30z m2137 20
c49 -21 81 -52 103 -100 17 -37 19 -75 19 -534 0 -484 0 -496 -21 -539 -13
-26 -38 -54 -62 -70 l-41 -27 -281 0 -281 0 -41 27 c-24 16 -49 44 -62 70 -21
43 -21 55 -21 536 0 530 0 533 53 591 51 55 81 61 350 61 201 0 255 -3 285
-15z m-838 -630 l0 -165 -535 0 -535 0 0 165 0 165 535 0 535 0 0 -165z" />
  </g>
  <defs>
<clipPath id="clip0_139_20">
<rect width="40" height="40" fill="white"/>
</clipPath>
</defs>
</svg>